<svg xmlns="http://www.w3.org/2000/svg" viewBox="0 0 67.733345 66.211632"><defs/><path d="M3.242247 33.218536c0 18.221583 14.43623 32.993095 32.24423 32.993095s32.24423-14.771512 32.24423-32.993095c0-18.221584-14.43623-32.993095-32.24423-32.993095S3.242247 14.996952 3.242247 33.218536z" style="marker:none" fill="#ad5904" color="#000" overflow="visible"/><path d="M35.068867 9.775851v6.913342l29.66398 2.624649c-2.178733-4.789124-5.450206-8.956091-9.483241-12.162639zm0 21.625805v6.91333l31.771364 2.624648c.580692-2.477394.893112-5.057455.893112-7.717044 0-1.5068-.099838-2.992382-.291002-4.445582zm0 18.464713V56.7797l20.030215 2.624648c4.070487-3.19694 7.377517-7.361812 9.58357-12.162628z" style="marker:none" fill="#ce6e00" color="#000" overflow="visible"/><path d="M0 32.993095C0 51.214678 13.09511 65.98619 29.248753 65.98619c16.153644 0 29.248754-14.771512 29.248754-32.993095C58.497507 14.77151 45.402397 0 29.248753 0 13.09511 0 0 14.77151 0 32.993095z" style="marker:none" fill="#ffc100" color="#000" overflow="visible"/><path fill="#ffee62" d="M28.198074 1.039926c-.699235.025564-1.403662.095216-2.110287.180882C13.683385 2.7253 4.097912 13.171027 1.819476 26.272938l16.580834 7.386006 12.887851-6.901794-.798917-25.687077c-.759849-.042737-1.519658-.058268-2.29117-.0301z"/><path d="M6.107275 33.991596c0 13.918274 10.234804 25.201265 22.86008 25.201265 12.625277 0 22.860082-11.28299 22.860082-25.201265 0-13.918274-10.234805-25.201264-22.860081-25.201264-12.625277 0-22.860081 11.28299-22.860081 25.201264z" style="marker:none" fill="#904d00" color="#000" overflow="visible"/><path d="M9.496812 33.991594c0 12.680507 9.101092 22.960088 20.327863 22.960088 11.22677 0 20.327862-10.279581 20.327862-22.960088 0-12.680506-9.101092-22.960087-20.327862-22.960087S9.496812 21.311087 9.496812 33.991594z" style="marker:none" fill="#e89a00" color="#000" overflow="visible"/><path style="marker:none" fill="#ce6e00" d="M28.630485 15.61582c-8.731427.473195-15.384065 8.656604-14.86241 18.282236.126082 2.326489.275495 4.566491 1.333577 6.440061 1.58554 2.808015 4.002246 4.793218 6.985233 6.264426-.370404 1.262105-.83906 2.454854-1.348767 3.54032.771316.9713 2.345066 2.639931 4.537594 3.321791l1.699514-8.002598.94978 8.441918c2.40581.215723 4.708932.025903 6.714881-.574948l.02511-8.283712 2.29364 7.333961c1.3453-.723397 2.46507-1.692338 3.27106-2.890742-.333126-1.288314-.830842-2.633017-1.305388-4.069829 2.62741-1.830228 4.450085-4.048363 5.63703-6.837934.82797-1.945835.942305-4.144002.820261-6.39599-.52165-9.625628-8.019743-17.04215-16.751115-16.56896zM21.110223 26.25326c2.374664-.128693 6.99157 4.239085 7.141794 7.011056.170516 3.146364-2.464876 4.162221-4.83954 4.290912-2.37475.128699-6.299727-2.03362-6.47024-5.17998-.129935-2.39757 1.793237-5.993292 4.167986-6.121988zm17.048104 2.08009c2.14349-.696975 4.325723.253064 4.49624 3.399436.170515 3.146364-2.946367 5.502563-5.87254 5.848903-2.361725.279516-4.96771-1.171853-4.871174-3.389156.096525-2.217307 3.583337-4.992907 6.247474-5.859182z" color="#000" overflow="visible"/><path d="M26.894956 14.771119c-8.73143.473193-15.384065 8.656604-14.86241 18.282233.126082 2.32649.275495 4.566492 1.333577 6.440064 1.58554 2.808013 4.002246 4.793218 6.985232 6.264423-.370403 1.262105-.83906 2.454857-1.348766 3.540321.771316.971301 2.345066 2.639933 4.537594 3.32179l1.699514-8.002594.94978 8.441917c2.40581.21572 4.708932.025903 6.714881-.574947l.02511-8.283713 2.29364 7.333959c1.3453-.723395 2.46507-1.692339 3.27106-2.890742-.333126-1.288312-.830842-2.633015-1.305388-4.069829 2.62741-1.830229 4.450085-4.04836 5.63703-6.837934.82797-1.945836.942305-4.144.82026-6.395987-.521654-9.625632-8.019747-17.042152-16.751119-16.568961zm-7.520262 10.637437c2.374664-.128694 6.99157 4.239085 7.141794 7.011058.170516 3.146362-2.464876 4.162219-4.83954 4.290912-2.37475.128699-6.299727-2.033619-6.47024-5.179983-.129935-2.39757 1.793237-5.993289 4.167986-6.121987zm17.048104 2.08009c2.14349-.696976 4.325723.253066 4.496239 3.399438.170516 3.146364-2.946366 5.502564-5.872538 5.8489-2.361727.27952-4.96771-1.17185-4.871175-3.389156.096525-2.217303 3.583337-4.992907 6.247474-5.859182z" style="marker:none" fill="#ffc100" color="#000" overflow="visible"/><path d="M26.89684 14.77088c-8.731427.473195-15.381038 8.660373-14.859386 18.286004.126085 2.326487.257678 4.576422 1.315672 6.449997 1.585542 2.808015 4.028641 4.790871 7.011625 6.262076-.296058 1.00878-.661633 1.933922-1.05402 2.834714 1.82727-.340595 3.620299-.726927 5.339458-1.195104l.604113-2.780141.287549 2.520479c2.203468-.641189 4.24266-1.370248 5.887677-2.221124 3.798263-1.964616 8.421032-7.002397 12.22728-13.373148-.003387-.071406-.00754-.139157-.01143-.21072-.521653-9.62563-8.017177-17.046223-16.748548-16.573032zm-7.514502 10.642062c2.374661-.128693 6.992492 4.237781 7.142718 7.009752.170516 3.146364-2.465631 4.149053-4.840293 4.277746-2.37475.128699-6.299105-2.02801-6.469618-5.174374-.129934-2.39757 1.792443-5.984425 4.167193-6.113124zm17.855424 1.900502c1.855994-.242062 3.54665.820537 3.69585 3.573608.170514 3.146364-2.946354 5.496912-5.872527 5.84325-2.361726.279516-4.98997-1.170637-4.893434-3.38794.096525-2.217306 3.599725-4.998183 6.263862-5.864458.267933-.087172.541108-.129879.80625-.16446z" style="marker:none" fill="#ffee62" color="#000" overflow="visible"/><path d="M28.630488 15.615825c-8.73143.473187-15.38407 8.6566-14.862416 18.28223.126085 2.326487.2755 4.56649 1.333577 6.44007 1.585548 2.808007 4.002252 4.793213 6.98524 6.264423-.370408 1.262102-.839062 2.454852-1.34877 3.540316.771318.9713 2.345067 2.639927 4.537595 3.32179l1.699517-8.002598.94978 8.441923c2.405806.215718 4.708927.025956 6.714874-.574953l.025082-8.283712 2.293641 7.333961c1.345298-.723392 2.465068-1.692338 3.271057-2.890742-.33312-1.288312-.830842-2.633011-1.305388-4.069831 2.627416-1.830224 4.450088-4.048355 5.63703-6.837929.827974-1.945836.94231-4.143997.820267-6.39599-.521653-9.625634-8.019749-17.042154-16.751123-16.568958zM21.110223 26.25326c2.374664-.128693 6.99157 4.239088 7.141792 7.011056.170521 3.146367-2.464874 4.162219-4.839539 4.290912-2.374749.128699-6.299721-2.033614-6.470242-5.179983-.129937-2.397567 1.793237-5.993286 4.167989-6.121985zm17.048107 2.08009c2.143492-.696978 4.325728.253061 4.496239 3.399441.17051 3.14636-2.946369 5.502558-5.872544 5.848898-2.361718.279522-4.967708-1.171853-4.87117-3.389156.096529-2.217301 3.58334-4.992907 6.247475-5.859182z" style="marker:none" fill="#904d00" color="#000" overflow="visible"/><path style="marker:none" fill="#ffc100" d="M26.894959 14.771122c-8.73143.473196-15.38407 8.656599-14.862418 18.28223.126087 2.326487.2755 4.566489 1.333576 6.440067 1.585548 2.80801 4.002255 4.793215 6.985241 6.264426-.370406 1.262102-.83906 2.454849-1.348769 3.540315.771319.971301 2.345068 2.639939 4.537596 3.32179l1.699517-8.002597.94978 8.441923c2.405803.215717 4.708927.02585 6.71487-.574953l.025083-8.283713 2.293641 7.333962c1.345306-.723392 2.465065-1.692339 3.271057-2.890742-.333123-1.288312-.830842-2.633012-1.305388-4.069832 2.627416-1.830223 4.450088-4.048355 5.637028-6.837928.827976-1.945836.942313-4.143997.820269-6.39599-.521653-9.625634-8.019751-17.042154-16.751123-16.568958zm-7.520265 10.637434c2.374664-.128694 6.99157 4.239088 7.141792 7.011053.170521 3.14637-2.464874 4.162221-4.839539 4.290922-2.374752.128691-6.299721-2.033621-6.470242-5.17999-.129927-2.397568 1.793237-5.993287 4.167989-6.121985zm17.048104 2.08009c2.143495-.696978 4.325728.25306 4.496242 3.39944.17051 3.14636-2.946369 5.502559-5.872544 5.848899-2.361718.279521-4.967708-1.171845-4.871172-3.389157.096528-2.217303 3.583342-4.992907 6.247474-5.859182z" color="#000" overflow="visible"/><path d="M26.925992 14.602646c-8.82627.478338-15.813236 8.09161-15.153351 18.219497.153138 2.350228.393049 4.891265 1.462529 6.78519 1.602758 2.838513 3.409569 4.710345 6.69009 5.932392-9.808146-5.982586-7.941522-18.45441-1.2818-25.15548 6.65971-6.701057 18.039693-2.625458 18.039693-2.625458-2.543228-2.275193-6.22494-3.347557-9.757121-3.15614z" style="marker:none" fill="#ffee62" color="#000" overflow="visible"/></svg>