<svg xmlns="http://www.w3.org/2000/svg" viewBox="0 0 67.733 66.212">
  <defs/>
  <path fill="#7e868c" d="M3.242 33.219c0 18.221 14.436 32.993 32.244 32.993S67.731 51.44 67.731 33.219C67.73 14.997 53.294.225 35.486.225S3.242 14.997 3.242 33.22z" color="#000" overflow="visible" style="marker:none"/>
  <path fill="#cdd1d4" d="M35.069 9.776v6.913l29.664 2.625A33.011 33.011 0 0055.25 7.15zm0 21.626v6.913L66.84 40.94c.58-2.478.893-5.058.893-7.717 0-1.507-.1-2.993-.29-4.446zm0 18.464v6.914l20.03 2.624a32.989 32.989 0 009.584-12.162z" color="#000" overflow="visible" style="marker:none"/>
  <path fill="#e1e9f0" d="M0 32.993c0 18.222 13.095 32.993 29.249 32.993 16.153 0 29.249-14.771 29.249-32.993C58.498 14.772 45.402 0 29.248 0 13.096 0 0 14.772 0 32.993z" color="#000" overflow="visible" style="marker:none"/>
  <path fill="#f2fbff" d="M28.198 1.04c-.7.026-1.404.095-2.11.18C13.683 2.726 4.098 13.172 1.819 26.274L18.4 33.659l12.888-6.902L30.49 1.07c-.76-.043-1.52-.058-2.291-.03z"/>
  <path fill="#7e868c" d="M6.107 33.992c0 13.918 10.235 25.2 22.86 25.2 12.626 0 22.86-11.282 22.86-25.2 0-13.919-10.234-25.202-22.86-25.202-12.625 0-22.86 11.283-22.86 25.202z" color="#000" overflow="visible" style="marker:none"/>
  <path fill="#cdd1d4" d="M9.497 33.992c0 12.68 9.1 22.96 20.328 22.96 11.226 0 20.327-10.28 20.327-22.96 0-12.68-9.1-22.96-20.327-22.96-11.227 0-20.328 10.28-20.328 22.96z" color="#000" overflow="visible" style="marker:none"/>
  <path fill="#7e868c" d="M28.63 15.616c-8.731.473-15.384 8.656-14.862 18.282.126 2.327.276 4.567 1.334 6.44 1.585 2.808 4.002 4.793 6.985 6.265a24.808 24.808 0 01-1.349 3.54c.771.971 2.345 2.64 4.538 3.322l1.7-8.003.949 8.442c2.406.216 4.709.026 6.715-.575l.025-8.284 2.294 7.334c1.345-.723 2.465-1.692 3.27-2.89-.332-1.289-.83-2.633-1.305-4.07 2.628-1.83 4.45-4.049 5.637-6.838.828-1.946.943-4.144.82-6.396-.521-9.626-8.02-17.042-16.75-16.57zm-7.52 10.637c2.375-.128 6.992 4.24 7.142 7.011.17 3.147-2.465 4.163-4.84 4.291-2.374.129-6.3-2.033-6.47-5.18-.13-2.397 1.793-5.993 4.168-6.122zm17.048 2.08c2.144-.697 4.326.253 4.497 3.4.17 3.146-2.947 5.502-5.873 5.849-2.362.28-4.968-1.172-4.871-3.39.096-2.217 3.583-4.992 6.247-5.859z" color="#000" overflow="visible" style="marker:none"/>
  <path fill="#e1e9f0" d="M26.895 14.771c-8.731.473-15.384 8.657-14.862 18.282.126 2.327.275 4.567 1.333 6.44 1.586 2.808 4.002 4.794 6.985 6.265a24.802 24.802 0 01-1.348 3.54c.77.971 2.345 2.64 4.537 3.322l1.7-8.003.95 8.442c2.405.216 4.708.026 6.714-.575l.025-8.283 2.294 7.334c1.345-.724 2.465-1.693 3.271-2.891-.333-1.288-.83-2.633-1.305-4.07 2.627-1.83 4.45-4.048 5.637-6.838.828-1.946.942-4.144.82-6.396-.522-9.626-8.02-17.042-16.751-16.569zm-7.52 10.638c2.374-.13 6.991 4.239 7.141 7.01.171 3.147-2.464 4.163-4.84 4.292-2.374.128-6.299-2.034-6.47-5.18-.13-2.398 1.794-5.994 4.169-6.122zm17.048 2.08c2.143-.697 4.326.253 4.496 3.4.17 3.145-2.946 5.502-5.873 5.848-2.361.28-4.967-1.172-4.87-3.39.096-2.216 3.583-4.992 6.247-5.858z" color="#000" overflow="visible" style="marker:none"/>
<path fill="#f2fbff" d="M26.926 14.603c-8.826.478-15.813 8.091-15.153 18.22.153 2.35.393 4.89 1.462 6.784 1.603 2.839 3.41 4.71 6.69 5.933-9.808-5.983-7.941-18.455-1.282-25.156 6.66-6.7 18.04-2.625 18.04-2.625-2.543-2.275-6.225-3.348-9.757-3.156z" color="#000" overflow="visible" style="marker:none"/>
</svg>
