
<svg fill="#ffffff" xmlns="http://www.w3.org/2000/svg" viewBox="0 0 216 216">
  <defs/>
  <path d="M88 168.19a28 28 0 001.73 4.23 39.49 39.49 0 002.42 3.91c.53.81 1.23 1.88 1.91 3l.29.51v.05c0 .05.18.32.27.48a12 12 0 011.67 4.69 7.44 7.44 0 01-1.6 4.86c-.43.61-.91 1.18-1.36 1.74a23.53 23.53 0 00-1.5 1.94 4.47 4.47 0 00-.79 1.83 2.07 2.07 0 000 .43c.16-.13.33-.25.52-.38a14 14 0 011.87-1c.55-.27 1.13-.49 1.69-.72a15.75 15.75 0 001.94-.86 7 7 0 002.75-2.33 5.43 5.43 0 00.69-2.2v-.14a8.07 8.07 0 00.07-1.15 4.7 4.7 0 000-.53 1.36 1.36 0 000-.2 19.16 19.16 0 00-1.75-5.93c0-.06 0-.1-.06-.15-.13-.25-.24-.5-.34-.75l-.08-.17c-.17-.39-.35-.78-.53-1.16a50 50 0 01-2.43-6c-.17-.53-.31-1.07-.43-1.59a8.14 8.14 0 01-.14-.86l-.26-2.27m27.27-100.88a3.32 3.32 0 01-1.48 2.13 3.68 3.68 0 01-1.55.56 4 4 0 01-.77 0 21.13 21.13 0 011 2.52 6.77 6.77 0 00.93-.11 5.47 5.47 0 001.48-.54 10.25 10.25 0 002.28-1.77 25 25 0 00-1.89-2.79zm2 3.07a3.87 3.87 0 01-.58 1.1 4.21 4.21 0 01-1.42 1.24 3.65 3.65 0 01-1.85.43 2.63 2.63 0 01-.84-.13v.08a21.49 21.49 0 01.67 3l.92-.26c.56-.2 1.12-.39 1.67-.61 1-.38 2-.82 3-1.2a20.94 20.94 0 00-1.57-3.65zm1.72 3.83a6.81 6.81 0 01-1.08.93 8.27 8.27 0 01-1.68.91 8.07 8.07 0 01-1.88.46 4.27 4.27 0 01-1 0c0 .12 0 .24.05.36a13.07 13.07 0 01.06 2.39 17.66 17.66 0 013-.57 15.76 15.76 0 013.57 0 20.12 20.12 0 00-1.04-4.48zm-36.23 53.05zm31.94-40.48c-.78-.14-1.58-.2-2.4-.27l-1.22-.05h-.24a26.31 26.31 0 01-1.7 2.32A4.57 4.57 0 01117 88a7 7 0 011.42.2 10.75 10.75 0 011.34.49 8.35 8.35 0 012.33 1.65 7.62 7.62 0 011.33 1.76 29 29 0 002-4.73 13.69 13.69 0 00-4.17-1.31zm-8.68 10a8.1 8.1 0 00-2.49-1 6.24 6.24 0 00-1.44-.17l-.32.26c-.7.57-1.43 1.14-2.2 1.73a2.62 2.62 0 01.62.07 5.44 5.44 0 012.75 1.14 6.06 6.06 0 011.84 2.34 6.61 6.61 0 01.61 2.27c1.58-1.13 3-2.22 4.35-3.28a14.56 14.56 0 00-3.72-3.36zm-5.74 7.63a14.16 14.16 0 00-1.51-2 8.43 8.43 0 00-1.85-1.52 6.51 6.51 0 00-1.23-.47c-.52.35-1.07.69-1.63 1l-2.07 1.3a4.27 4.27 0 01.86.19 6.56 6.56 0 012.37 1.47 8.84 8.84 0 011.6 2.21 8 8 0 01.74 2.08c1.32-.82 2.6-1.64 3.83-2.44-.36-.65-.74-1.24-1.11-1.82zM86 113.3c-.77-.48-1.53-.93-2.32-1.35a8.16 8.16 0 00-1.12-.53 30.55 30.55 0 00-4.62 4 5.39 5.39 0 01.71.05 11.7 11.7 0 012.76.73 19.18 19.18 0 012.53 1.25 14.72 14.72 0 011.93 1.33.2.2 0 01.07-.06 36.31 36.31 0 014.28-3c-1.51-.72-2.89-1.57-4.22-2.42zm4.87-3.06a24.53 24.53 0 00-2.17-1.59 8.23 8.23 0 00-1-.53c-1.56.92-3.1 1.87-4.58 2.91a6.74 6.74 0 01.88.24 13.86 13.86 0 012.5 1.24 20 20 0 012.25 1.61 14.53 14.53 0 011.66 1.58c.54-.3 1.09-.61 1.65-.9.92-.47 1.82-1 2.72-1.43-1.42-1.01-2.68-2.12-3.96-3.13zM81 117.11c-.84-.33-1.69-.64-2.55-.89a9 9 0 00-1.05-.22 33.31 33.31 0 00-3.11 4 3.35 3.35 0 01.71 0 7.8 7.8 0 012.57.57 12.13 12.13 0 013.89 2.56 30.89 30.89 0 014.21-4.19c-1.61-.56-3.12-1.23-4.67-1.83zm-3.79 4.32a12.87 12.87 0 00-2.29-.71 4.44 4.44 0 00-1-.09 32.24 32.24 0 00-2.35 4.46 3.93 3.93 0 01.84 0 11.45 11.45 0 012.33.46 15.59 15.59 0 013.85 1.77 27.35 27.35 0 012.77-4.06c-1.44-.62-2.77-1.26-4.14-1.83zm-5.65 15.21a18.32 18.32 0 00-1.94-.11h-.57a25.51 25.51 0 00.54 5.23 3.38 3.38 0 01.41-.24 4.66 4.66 0 011.75-.44 6.79 6.79 0 011.74.15 9.34 9.34 0 011.16.4 28.64 28.64 0 01.47-4.78c-1.22.03-2.39-.11-3.55-.21zm6.37 15.57c-.69.28-1.35.47-2 .71a3.46 3.46 0 00-.93.52 37.84 37.84 0 003.69 4.1 2.46 2.46 0 01.52-.7 3.23 3.23 0 011.49-.82 36.38 36.38 0 01-2.76-3.81zm55.9-86.53a27.46 27.46 0 00-5.48-7.34 21.36 21.36 0 00-3.31-2.62l-.09-.06a15.18 15.18 0 00-2.19-1.2l-.1-.06-.76-.4h-.07c-.32-.12-.66-.23-1-.33a11.26 11.26 0 00-1.72-.39h-.4c-.13 0-.26 0-.4-.06l-1.22-.22-.77-.08c-1.62-.15-3.18-.25-4.65-.29a39.8 39.8 0 00-4.63.15 19 19 0 00-2.24.34h-.16l-.44.11h-.11l-.28.1v4.46c.33 0 .66.08 1 .15a15.38 15.38 0 015.63 2.13 17.21 17.21 0 013.41 2.93l.21.21c.07.08.13.14.19.22a18.07 18.07 0 011.65 2.09l.17.25c.21-.09.41-.18.6-.28a3.81 3.81 0 00.93-.63 5.19 5.19 0 001.14-1.62 21.41 21.41 0 00-2.13-1.74l.53-.78c.18.12 17.56 12.49 6.92 32.14-2.74 5.06-16.34 14.86-31.64 22.81a36.84 36.84 0 00-6 3.85 29 29 0 00-10.88 22.44 16.4 16.4 0 00.12 2.41c0 .09.78 7.11 9.85 15.25a4.1 4.1 0 00.73.45v-.1-.52a33.65 33.65 0 01.47-4.76c.12-.7.25-1.39.4-2.09a7.23 7.23 0 01-1.27-1.45c-.13-.23-.41-.74-.52-1a25.61 25.61 0 01-1.9-4.72l-.13-.46-.16-.65a.09.09 0 010-.05v-.12a1.42 1.42 0 000-.2v-.21a5.27 5.27 0 01-.1-.52 4.37 4.37 0 01-.09-.5v-.3a18 18 0 01-.15-2.41 16.22 16.22 0 011-5.66 16.69 16.69 0 015.6-7.79 53.7 53.7 0 017.68-5.56l1.74-1c2.11-1.21 4.3-2.45 6.39-3.77 2.57-1.6 5.22-3.34 7.86-5.18 2.34-1.61 4.77-3.35 7.67-5.49a59.56 59.56 0 007.13-6 30.72 30.72 0 005.47-7.39 33.9 33.9 0 003.06-8.69 26.27 26.27 0 00-2.55-17.8zM81 156.32a11.54 11.54 0 01-1.11 1.18c-.21.2-.4.4-.58.6a47.2 47.2 0 003.9 3.24 2 2 0 010-.55 1.52 1.52 0 000-.21 3.12 3.12 0 01.47-1 1.42 1.42 0 01.2-.22 61.179 61.179 0 01-2.88-3.04zm4.41 4.38c-.11-.1-.23-.16-.34-.26l-.67-.6c-.07.34-.15.65-.23 1s-.08.36-.12.55l-.06.28v.24l.18.13c.27.19.54.39.82.57a1.7 1.7 0 00.22.15c.09.07.77.44.86.5v-2.14zm-10.64-16.26a19.29 19.29 0 01-.12-2.48h-1.23c-.4 0-1.09 0-1.61.06a9.94 9.94 0 00-1.55.18l-.54.14a25.36 25.36 0 001.4 4.38 3.63 3.63 0 011.51-.61 6.47 6.47 0 011.58 0 6 6 0 011 .19 11.25 11.25 0 01-.44-1.86zm.51 2.2c-.86.2-1.68.29-2.49.44a6 6 0 00-1.31.32h-.06a25.26 25.26 0 001.15 2.26 29.76 29.76 0 002 3.13 2.4 2.4 0 011-.77 4.27 4.27 0 011.39-.26 5.32 5.32 0 01.69 0 23.93 23.93 0 01-2.37-5.12zm-2.69-15.21a16.38 16.38 0 00-2.07-.23 5.49 5.49 0 00-.91.05c-.07.31-.12.61-.17.91a25.47 25.47 0 00-.37 3.79 2.18 2.18 0 01.48-.14 7.46 7.46 0 012.1-.11 11.4 11.4 0 012 .4 8.46 8.46 0 011.49.57 31.78 31.78 0 011.24-4.62c-1.29-.17-2.54-.43-3.79-.62zm1.86-5c-.73-.23-1.45-.44-2.18-.64-.31-.08-.63-.16-.94-.21a27.88 27.88 0 00-1.6 5 3.93 3.93 0 01.73-.19 7.91 7.91 0 012.28 0 10.41 10.41 0 013.73 1.36 31 31 0 012-4.37 38.55 38.55 0 01-4.02-.92zM95.91 107a7.34 7.34 0 00-3.25-1.75l-1.92 1.08-2.45 1.41a5.13 5.13 0 01.71.26 11 11 0 012.41 1.51 16.93 16.93 0 012 1.93 15 15 0 011.44 1.84c1.58-.86 3.14-1.73 4.65-2.61a37.88 37.88 0 00-3.59-3.67zm5.2-2.72a9.14 9.14 0 00-2-1.45 6.7 6.7 0 00-1.24-.5c-1.2.68-2.39 1.35-3.57 2l-.8.45a2.53 2.53 0 01.38.07 6.64 6.64 0 012.62 1.43 12 12 0 012 2.17 11.51 11.51 0 011.18 2.12c1.47-.85 2.91-1.71 4.29-2.56a21 21 0 00-2.86-3.72zm7.81-5.42a7.56 7.56 0 00-3.48-1.42l-.86.64c-.55.42-1.13.83-1.73 1.23a4 4 0 01.91.21 6.2 6.2 0 012.25 1.56 8.91 8.91 0 012.09 4.28q1.92-1.26 3.66-2.51a9.58 9.58 0 00-2.84-3.98zm9.54-4.33a10.42 10.42 0 00-2.24-1.44 8.19 8.19 0 00-1.24-.49c-.22-.07-.42-.15-.64-.21l-.66-.16c-.44-.12-.9-.15-1.36-.25h-.3c-.83.8-1.73 1.6-2.72 2.43a3.7 3.7 0 01.88 0 6.39 6.39 0 012.85.89 8.11 8.11 0 013.4 4.1c1.39-1.11 2.61-2.18 3.64-3.18a11.9 11.9 0 00-1.61-1.68zm.88-5a9.73 9.73 0 00-2.46-.81 10.19 10.19 0 00-1.58-.21.83.83 0 01-.08.12c-.84 1-1.75 1.93-2.76 2.9a9.69 9.69 0 011.32 0 8.12 8.12 0 012.84.74A7.29 7.29 0 01119 94a6.08 6.08 0 011.24 2 16.45 16.45 0 003-3.65.47.47 0 01.05-.1 15.88 15.88 0 00-3.95-2.73zm3.21-7.1c-.71-.09-1.42-.12-2.14-.16h-1.24a15.8 15.8 0 01-1.49 3 11 11 0 011.15-.19 10.06 10.06 0 012.57.06 8.31 8.31 0 012.47.8 5.69 5.69 0 011.63 1.2 24.7 24.7 0 00.94-4.19c-1.34-.19-2.6-.4-3.89-.53zm4-4.3a15.83 15.83 0 01-3.48.76A17.68 17.68 0 01120 79a9 9 0 01-.19 1.08 10.6 10.6 0 01-.44 1.7 7.26 7.26 0 011-.23 8.62 8.62 0 012.27 0 9.8 9.8 0 012.21.48 7.79 7.79 0 011.61.74 21.57 21.57 0 00.07-4.65zm-7.44-14.58a2.81 2.81 0 01-.1.69 2.58 2.58 0 01-2.11 1.93 2.85 2.85 0 01-.51 0 21.39 21.39 0 011.46 2.66l.78-.29a7 7 0 001.22-.63 5.59 5.59 0 001-.85 6.79 6.79 0 00.7-.79 28.78 28.78 0 00-2.46-2.73zM98.85 166.87a2.37 2.37 0 00-.27 1.22 2.81 2.81 0 00.35 1.15l.14.23-.5-.11c-.33-.08-.67-.15-1-.25s-.43-.11-.64-.18-.61-.16-.92-.26l-.39-.12v-.19a.88.88 0 000-.16v-.07a.15.15 0 000-.07V168a18.27 18.27 0 010-2.34l.46.14a29.92 29.92 0 003.21.65 1.31 1.31 0 00-.44.42zM104 167.57a5.09 5.09 0 00-.1 1.17 3.21 3.21 0 00.27 1.2 1 1 0 00.09.18h-.61c-.58 0-1.15-.09-1.73-.16l-.8-.11h-.17c-.26 0-.51-.07-.76-.12l-.47-.07c-.06-.58-.15-1.08-.17-1.56a5.64 5.64 0 010-.92 4.15 4.15 0 01.15-.61 33.65 33.65 0 004.58.3 4.26 4.26 0 00-.28.7zM109.13 167.28a4 4 0 00-.12 1.26 2.54 2.54 0 00.39 1.31h-.14L108 170c-1 .08-2.06.12-3.08.1v-.39-1.05a9.31 9.31 0 00-.26-1.9h1.92c1-.06 2-.16 3-.3a3.38 3.38 0 00-.45.82zM114.47 168.47a1 1 0 00.19.22l-.89.27-.9.25c-.89.22-1.79.41-2.7.56a1 1 0 01-.09-.26 6.33 6.33 0 01-.12-1 12.86 12.86 0 00-.21-2.08 32.59 32.59 0 004.68-1 3 3 0 00-.25.77 3.72 3.72 0 00-.07 1.16 2.66 2.66 0 00.36 1.11zM119.83 166.3l.16.13-.19.1-1 .53h-.09c-.34.16-.67.32-1 .46l-.12.06q-.41.18-.81.33l-1 .4-.43.14a1.46 1.46 0 01-.1-.34 5.72 5.72 0 01-.12-1 10.91 10.91 0 00-.35-1.91c1-.29 1.9-.62 2.82-1 .61-.24 1.21-.5 1.79-.77a3.12 3.12 0 000 1.79 2.2 2.2 0 00.44 1.08zM119.52 163.4a34.12 34.12 0 003.92-2.19 2.14 2.14 0 00-.06.66 2.25 2.25 0 00.23.87 1.77 1.77 0 00.65.71.59.59 0 00.17.1l-.23.18c-.23.18-.47.35-.7.51-.48.34-1 .67-1.45 1s-1 .62-1.51.9a.91.91 0 01-.13-.26c-.09-.24-.17-.52-.26-.8a7.45 7.45 0 00-.63-1.68zM130.64 156.46a1.08 1.08 0 00.52.22c-.42.58-.86 1.14-1.32 1.69l-.49.57a3.7 3.7 0 01-.37.42.63.63 0 00-.11-.12 3.53 3.53 0 00-.37-.33 4.38 4.38 0 00-1-.56 1.13 1.13 0 00.43 1.3 1.34 1.34 0 00.56.24 5 5 0 01-.39.41c-.56.58-1.14 1.14-1.75 1.67-.26.24-.52.47-.79.69l-.64.52a1.75 1.75 0 01-.16-.25c-.11-.2-.21-.4-.32-.62a6.22 6.22 0 00-.8-1.23 38.18 38.18 0 003.48-2.58 42.64 42.64 0 003.19-3 .57.57 0 000 .26 1 1 0 00.33.7zM134.08 151.09a3.47 3.47 0 01-.13.46 5.65 5.65 0 01-.23.73 6.25 6.25 0 01-.24.6 6.76 6.76 0 01-.47.93c-.18.29-.35.59-.54.89s-.56.89-.87 1.32a.6.6 0 00-.08-.08c-.11-.12-.21-.18-.28-.26l-.26-.17a2.47 2.47 0 01-.34-.36c.93-1 1.81-2 2.65-3 .17-.2.33-.4.47-.59l.34-.44z"/>
  <path d="M94.56 167.61v-.06-1.99a.13.13 0 000-.06c0-.45.07-.92.13-1.4 0-.17 0-.34.06-.5s0-.17 0-.25l.12-.8a17.38 17.38 0 01.69-3 44.18 44.18 0 012.24-7.16c.47-1 .91-2 1.32-3.09a17 17 0 012.4-4.15 74.4 74.4 0 015.94-6.34 17.13 17.13 0 014-2.68 4.56 4.56 0 012-.67 5.61 5.61 0 01.55-.13l.52-.08a11.49 11.49 0 014.19.21 13.28 13.28 0 013.91 1.51 6.21 6.21 0 011.75 1.37 6 6 0 011 2 10.16 10.16 0 01.37 3.38 5 5 0 010 .51 2.33 2.33 0 010 .37v.32c0 .3-.1.59-.16.88a12.34 12.34 0 01-.42 1.51 13.65 13.65 0 01-.5 1.28 16.46 16.46 0 01-5.21 6.37l-.14.11a30.43 30.43 0 01-4 2.83c-.12.07-.26.17-.42.25l-.45.26-.37.2-.77.34-.21.09a15 15 0 01-3.31.9h-.53a31.2 31.2 0 01-4.21.16h-.5a17 17 0 01-3.27-.61h-.14l-.66-.25-1.83-.7-1.3-.47c0 .09-.3 1.06-.35 1.24a40.41 40.41 0 00-1 4.91l-.09.76a35.91 35.91 0 0010.79 1.29 34.39 34.39 0 0010.87-2.2 36.77 36.77 0 009.59-6 37.85 37.85 0 006.1-6.23c.06-.07.21-.35.39-.56s1-1.53 1-1.57.14 0 0-2.77a26.35 26.35 0 00-.32-3c0-.07-.26-1.67-.36-2.18a11.81 11.81 0 00-.44-1.43l-.24-.8c-.05-.19-.11-.38-.17-.57s-.2-.63-.32-.93-.22-.58-.34-.87v-.07c0-.06 0-.14-.07-.2a2.29 2.29 0 01-.1-.23l-.09-.19c-.14-.31-.28-.61-.43-.9l-.08-.17-.15-.27-.28-.5c-.24-.42-.49-.82-.76-1.21-.21-.31-.44-.62-.66-.91a1.49 1.49 0 01-.12-.14h-.05l-.07-.09-.11-.15c-.07-.08-.14-.15-.2-.23l-.16-.19-.18-.2a3.07 3.07 0 00-.25-.26c-.1-.11-.21-.23-.32-.33a12.08 12.08 0 00-1.2-1.07.38.38 0 00-.12-.1l-.09-.07-.21-.17-.31-.22-.71-.47-.58-.35-.25-.14c-.26-.13-.52-.27-.79-.38l-.11-.05a.33.33 0 00-.1-.06c-.22-.09-.42-.18-.64-.25-.21-.09-.43-.16-.64-.23l-.3-.08-.38-.11a16.27 16.27 0 00-2.8-.52h-.29a1.24 1.24 0 00-.27 0 24.38 24.38 0 00-8.94 1.26c-.36.11-.73.24-1.08.36a28.19 28.19 0 00-3 1.24c-.14.05-.25.11-.36.16l-.56.28c-.6.3-1.14.6-1.66.91l-.66.41-.83.55c-.31.23-.61.44-.91.68l-.14.09-.75.63c-.26.2-.49.41-.73.62a27.88 27.88 0 00-2.97 2.34c-.25.29-.49.58-.73.88s-.47.6-.7.91-.4.53-.59.8l-.23.33c-.34.51-.71 1.08-1.14 1.78-.2.34-.39.68-.57 1-.27.51-.53 1-.75 1.43s-.42.88-.62 1.31-.36.84-.54 1.27a42.22 42.22 0 00-1.73 5.16c-.15.58-.29 1.18-.42 1.76s-.26 1.31-.37 2a30.93 30.93 0 00-.47 4.56V160.19c-.05 1.18-.06 2.15-.05 3.06v.12c0 .34.07.77.07.77a26.63 26.63 0 00.88 4.19M66.7 52.42c-.26.3-.26.73 0 .84a.41.41 0 00.4 0c.07 0 .09-.07.11-.13a2.44 2.44 0 000-.29 1.83 1.83 0 01.44-1.34 12.16 12.16 0 00-.95.92zm0 0c-.26.3-.26.73 0 .84a.41.41 0 00.4 0c.07 0 .09-.07.11-.13a2.44 2.44 0 000-.29 1.83 1.83 0 01.44-1.34 12.16 12.16 0 00-.95.92zm0 0c-.26.3-.26.73 0 .84a.41.41 0 00.4 0c.07 0 .09-.07.11-.13a2.44 2.44 0 000-.29 1.83 1.83 0 01.44-1.34 12.16 12.16 0 00-.95.92zm0 0c-.26.3-.26.73 0 .84a.41.41 0 00.4 0c.07 0 .09-.07.11-.13a2.44 2.44 0 000-.29 1.83 1.83 0 01.44-1.34 12.16 12.16 0 00-.95.92zm0 0c-.26.3-.26.73 0 .84a.41.41 0 00.4 0c.07 0 .09-.07.11-.13a2.44 2.44 0 000-.29 1.83 1.83 0 01.44-1.34 12.16 12.16 0 00-.95.92zm0 0c-.26.3-.26.73 0 .84a.41.41 0 00.4 0c.07 0 .09-.07.11-.13a2.44 2.44 0 000-.29 1.83 1.83 0 01.44-1.34 12.16 12.16 0 00-.95.92zm0 0c-.26.3-.26.73 0 .84a.41.41 0 00.4 0c.07 0 .09-.07.11-.13a2.44 2.44 0 000-.29 1.83 1.83 0 01.44-1.34 12.16 12.16 0 00-.95.92zm0 0c-.26.3-.26.73 0 .84a.41.41 0 00.4 0c.07 0 .09-.07.11-.13a2.44 2.44 0 000-.29 1.83 1.83 0 01.44-1.34 12.16 12.16 0 00-.95.92zm0 0c-.26.3-.26.73 0 .84a.41.41 0 00.4 0c.07 0 .09-.07.11-.13a2.44 2.44 0 000-.29 1.83 1.83 0 01.44-1.34 12.16 12.16 0 00-.95.92zm0 0c-.26.3-.26.73 0 .84a.41.41 0 00.4 0c.07 0 .09-.07.11-.13a2.44 2.44 0 000-.29 1.83 1.83 0 01.44-1.34 12.16 12.16 0 00-.95.92zm0 0c-.26.3-.26.73 0 .84a.41.41 0 00.4 0c.07 0 .09-.07.11-.13a2.44 2.44 0 000-.29 1.83 1.83 0 01.44-1.34 12.16 12.16 0 00-.95.92zm0 0c-.26.3-.26.73 0 .84a.41.41 0 00.4 0c.07 0 .09-.07.11-.13a2.44 2.44 0 000-.29 1.83 1.83 0 01.44-1.34 12.16 12.16 0 00-.95.92zm0 0c-.26.3-.26.73 0 .84a.41.41 0 00.4 0c.07 0 .09-.07.11-.13a2.44 2.44 0 000-.29 1.83 1.83 0 01.44-1.34 12.16 12.16 0 00-.95.92zm0 0c-.26.3-.26.73 0 .84a.41.41 0 00.4 0c.07 0 .09-.07.11-.13a2.44 2.44 0 000-.29 1.83 1.83 0 01.44-1.34 12.16 12.16 0 00-.95.92zm0 0c-.26.3-.26.73 0 .84a.41.41 0 00.4 0c.07 0 .09-.07.11-.13a2.44 2.44 0 000-.29 1.83 1.83 0 01.44-1.34 12.16 12.16 0 00-.95.92zm0 0c-.26.3-.26.73 0 .84a.41.41 0 00.4 0c.07 0 .09-.07.11-.13a2.44 2.44 0 000-.29 1.83 1.83 0 01.44-1.34 12.16 12.16 0 00-.95.92zm0 0c-.26.3-.26.73 0 .84a.41.41 0 00.4 0c.07 0 .09-.07.11-.13a2.44 2.44 0 000-.29 1.83 1.83 0 01.44-1.34 12.16 12.16 0 00-.95.92zm0 0c-.26.3-.26.73 0 .84a.41.41 0 00.4 0c.07 0 .09-.07.11-.13a2.44 2.44 0 000-.29 1.83 1.83 0 01.44-1.34 12.16 12.16 0 00-.95.92zm0 0c-.26.3-.26.73 0 .84a.41.41 0 00.4 0c.07 0 .09-.07.11-.13a2.44 2.44 0 000-.29 1.83 1.83 0 01.44-1.34 12.16 12.16 0 00-.95.92zm0 0c-.26.3-.26.73 0 .84a.41.41 0 00.4 0c.07 0 .09-.07.11-.13a2.44 2.44 0 000-.29 1.83 1.83 0 01.44-1.34 12.16 12.16 0 00-.95.92zm0 0c-.26.3-.26.73 0 .84a.41.41 0 00.4 0c.07 0 .09-.07.11-.13a2.44 2.44 0 000-.29 1.83 1.83 0 01.44-1.34 12.16 12.16 0 00-.95.92zm0 0c-.26.3-.26.73 0 .84a.41.41 0 00.4 0c.07 0 .09-.07.11-.13a2.44 2.44 0 000-.29 1.83 1.83 0 01.44-1.34 12.16 12.16 0 00-.95.92zm0 0c-.26.3-.26.73 0 .84a.41.41 0 00.4 0c.07 0 .09-.07.11-.13a2.44 2.44 0 000-.29 1.83 1.83 0 01.44-1.34 12.16 12.16 0 00-.95.92zm0 0c-.26.3-.26.73 0 .84a.41.41 0 00.4 0c.07 0 .09-.07.11-.13a2.44 2.44 0 000-.29 1.83 1.83 0 01.44-1.34 12.16 12.16 0 00-.95.92zm0 0c-.26.3-.26.73 0 .84a.41.41 0 00.4 0c.07 0 .09-.07.11-.13a2.44 2.44 0 000-.29 1.83 1.83 0 01.44-1.34 12.16 12.16 0 00-.95.92zm0 0c-.26.3-.26.73 0 .84a.41.41 0 00.4 0c.07 0 .09-.07.11-.13a2.44 2.44 0 000-.29 1.83 1.83 0 01.44-1.34 12.16 12.16 0 00-.95.92zm0 0c-.26.3-.26.73 0 .84a.41.41 0 00.4 0c.07 0 .09-.07.11-.13a2.44 2.44 0 000-.29 1.83 1.83 0 01.44-1.34 12.16 12.16 0 00-.95.92zm0 0c-.26.3-.26.73 0 .84a.41.41 0 00.4 0c.07 0 .09-.07.11-.13a2.44 2.44 0 000-.29 1.83 1.83 0 01.44-1.34 12.16 12.16 0 00-.95.92zm0 0c-.26.3-.26.73 0 .84a.41.41 0 00.4 0c.07 0 .09-.07.11-.13a2.44 2.44 0 000-.29 1.83 1.83 0 01.44-1.34 12.16 12.16 0 00-.95.92zm0 0c-.26.3-.26.73 0 .84a.41.41 0 00.4 0c.07 0 .09-.07.11-.13a2.44 2.44 0 000-.29 1.83 1.83 0 01.44-1.34 12.16 12.16 0 00-.95.92zm0 0c-.26.3-.26.73 0 .84a.41.41 0 00.4 0c.07 0 .09-.07.11-.13a2.44 2.44 0 000-.29 1.83 1.83 0 01.44-1.34 12.16 12.16 0 00-.95.92zm0 0c-.26.3-.26.73 0 .84a.41.41 0 00.4 0c.07 0 .09-.07.11-.13a2.44 2.44 0 000-.29 1.83 1.83 0 01.44-1.34 12.16 12.16 0 00-.95.92zm0 0c-.26.3-.26.73 0 .84a.41.41 0 00.4 0c.07 0 .09-.07.11-.13a2.44 2.44 0 000-.29 1.83 1.83 0 01.44-1.34 12.16 12.16 0 00-.95.92zm0 0c-.26.3-.26.73 0 .84a.41.41 0 00.4 0c.07 0 .09-.07.11-.13a2.44 2.44 0 000-.29 1.83 1.83 0 01.44-1.34 12.16 12.16 0 00-.95.92zm0 0c-.26.3-.26.73 0 .84a.41.41 0 00.4 0c.07 0 .09-.07.11-.13a2.44 2.44 0 000-.29 1.83 1.83 0 01.44-1.34 12.16 12.16 0 00-.95.92zm0 0c-.26.3-.26.73 0 .84a.41.41 0 00.4 0c.07 0 .09-.07.11-.13a2.44 2.44 0 000-.29 1.83 1.83 0 01.44-1.34 12.16 12.16 0 00-.95.92zm0 0c-.26.3-.26.73 0 .84a.41.41 0 00.4 0c.07 0 .09-.07.11-.13a2.44 2.44 0 000-.29 1.83 1.83 0 01.44-1.34 12.16 12.16 0 00-.95.92zm0 0c-.26.3-.26.73 0 .84a.41.41 0 00.4 0c.07 0 .09-.07.11-.13a2.44 2.44 0 000-.29 1.83 1.83 0 01.44-1.34 12.16 12.16 0 00-.95.92zm0 0c-.26.3-.26.73 0 .84a.41.41 0 00.4 0c.07 0 .09-.07.11-.13a2.44 2.44 0 000-.29 1.83 1.83 0 01.44-1.34 12.16 12.16 0 00-.95.92zm0 0c-.26.3-.26.73 0 .84a.41.41 0 00.4 0c.07 0 .09-.07.11-.13a2.44 2.44 0 000-.29 1.83 1.83 0 01.44-1.34 12.16 12.16 0 00-.95.92zm0 0c-.26.3-.26.73 0 .84a.41.41 0 00.4 0c.07 0 .09-.07.11-.13a2.44 2.44 0 000-.29 1.83 1.83 0 01.44-1.34 12.16 12.16 0 00-.95.92zm0 0c-.26.3-.26.73 0 .84a.41.41 0 00.4 0c.07 0 .09-.07.11-.13a2.44 2.44 0 000-.29 1.83 1.83 0 01.44-1.34 12.16 12.16 0 00-.95.92zm0 0c-.26.3-.26.73 0 .84a.41.41 0 00.4 0c.07 0 .09-.07.11-.13a2.44 2.44 0 000-.29 1.83 1.83 0 01.44-1.34 12.16 12.16 0 00-.95.92zm0 0c-.26.3-.26.73 0 .84a.41.41 0 00.4 0c.07 0 .09-.07.11-.13a2.44 2.44 0 000-.29 1.83 1.83 0 01.44-1.34 12.16 12.16 0 00-.95.92zm69.4-23l-.44.47-.74.81a8.77 8.77 0 01-5.52 2.79h-.3a10 10 0 00-1.51.34h-.16l-1.06.31h-.07.06a10.26 10.26 0 001-.73 13.16 13.16 0 005.22-7.7c.07-.26.16-.5.23-.72v-.11l-.09.08c-.1.09-.29.26-.56.48-2.21 1.93-9.59 8.1-14.22 8.66-6.83.83-10.93 2.85-12.7 3.94a9.69 9.69 0 00-1 .68h-.06v-.06c0-.06.33-.51.72-1 1.17-1.53 3.61-4.21 6.75-4.74 4.18-.71 7.07-4.62 8.33-6.69.38-.63.61-1.09.69-1.24-.35.36-.67.68-1 .95a11.13 11.13 0 01-5.7 2.62 9.53 9.53 0 00-2 .81 8.31 8.31 0 00-.77.43h-.07v-.07l.51-.73.2-.29a21.87 21.87 0 012.37-2.43 5.87 5.87 0 002-4.45 14.59 14.59 0 00-.74-4.13c-.14-.43-.26-.73-.32-.87v-.08.25l-.05.94-.14 2.91c-.47 2.43-1.91 3.55-3.74 4.69-.53.34-2.2 1.19-2.2 1.19s-3.12 1.81-3.62 2.18a27 27 0 00-7.45 7.82c-.16.27-.26.46-.31.57v.08a.28.28 0 000-.09v-.63a13.32 13.32 0 012.19-7.89 6.94 6.94 0 01.82-1c-.1.06-2.43 1.83-2.7 2.14-.11.12-.24.23-.36.35l-.38.38a10 10 0 00-2 3.47 18.57 18.57 0 01-1.72 4 6.9 6.9 0 01-3.31 3l-.79.3.42-.79a11.67 11.67 0 00.92-2.22 8.36 8.36 0 00-.06-4.72 7.07 7.07 0 00-.51-1.21 6.37 6.37 0 01-.75 2.53 8.51 8.51 0 01-2.72 2.75 5.33 5.33 0 00-2.27 2.63 4.77 4.77 0 000 3.41l.15.35-.33.09a8.49 8.49 0 00-2.63 1.25 9.46 9.46 0 00-2 2.1c-.28.41-.56.82-.83 1.25a4.15 4.15 0 01-1 1.25 5.94 5.94 0 01-3.1.64c-2.06 0-4.1-.47-6-.59a2.94 2.94 0 00-1.35.3 4.45 4.45 0 00-1.13.87 2.94 2.94 0 01-.65.51 1.27 1.27 0 01-.93.1 3.27 3.27 0 01-1.05-.49 1.21 1.21 0 00.12.53 1.27 1.27 0 00.32.38 1.41 1.41 0 00.42.25l.53.2-.47.3a2.25 2.25 0 00-.92 1 1.79 1.79 0 000 1.31c0 .09.07.19.11.28a2.51 2.51 0 01.62-1.13l.75-.85-.29 1.11a9.33 9.33 0 00-.4 3.12 2.17 2.17 0 00.53 1.33 1.42 1.42 0 001 .41 2.09 2.09 0 01.18-.85 2.38 2.38 0 01.71-.88 5 5 0 012-.86l.23-.05.06.24a3.63 3.63 0 00.87 1.56 2.52 2.52 0 001.57.7 3 3 0 001.25-.15h-.12a2.72 2.72 0 01-1-.27 1.7 1.7 0 01-.71-.84 4 4 0 01-.29-1c0-.17 0-.32-.06-.51a.86.86 0 01.16-.62 1.36 1.36 0 011.07-.4c1.36 0 2.61.4 3.85.51a5.38 5.38 0 001.75-.51 6.9 6.9 0 011.92-.55 1.43 1.43 0 01.57.08l.44.16a5.66 5.66 0 00.91.19 6.39 6.39 0 001.85 0 15.16 15.16 0 006.67-3.51l.43-.35-.1.53a11.4 11.4 0 01-.6 1.79 8.55 8.55 0 01-.88 1.69 30.64 30.64 0 01-2.79 2.44c-.5.38-1 .73-1.53 1.08a13.24 13.24 0 01-1.75.65 3 3 0 00-2.1 2.56v.11h-.11a6.35 6.35 0 01-2.13-.3 10.3 10.3 0 01-1.79-.72 3.8 3.8 0 00.08.84c.1.28.44.48.72.71l.27.19H77a3.64 3.64 0 00-2.77 1.23 4.17 4.17 0 00-.69 2.78 5.06 5.06 0 01.68-.71 4.28 4.28 0 011-.64 4 4 0 012.4-.22h.12l-.08.1a7.44 7.44 0 00-1.82 3.46 2.8 2.8 0 00.31 1.88 2.21 2.21 0 00.63.73 1.51 1.51 0 00.42.25c.13.05.36.08.38 0a2.51 2.51 0 01.34-2 2.74 2.74 0 011.81-1 6.13 6.13 0 002-.6A2 2 0 0082.92 67a5.83 5.83 0 011.48 2c0 .08 0 .14.07.22a.75.75 0 010 .16.28.28 0 010 .13.25.25 0 010 .08v.53a3.15 3.15 0 010 .44 1.45 1.45 0 010 .3.19.19 0 010 .08 2.68 2.68 0 00-.07.27c0 .08 0 .16-.08.25v.07a.5.5 0 010 .13v.06c0 .07 0 .13-.07.2s-.1.2-.15.3l.15-.08a.59.59 0 00.16-.07h.09a2.82 2.82 0 00.42-.23l.19-.13.19-.14c.14-.1.27-.21.41-.33A3.28 3.28 0 0087 69.36a4.66 4.66 0 00-.68-4 9.39 9.39 0 003.17-1.56 12.27 12.27 0 013-1.89 5.14 5.14 0 013.51-.3 5.51 5.51 0 012.74 2.25 13.56 13.56 0 001 1.45 9.17 9.17 0 001.28 1.21 7.64 7.64 0 003.2 1.38 12.37 12.37 0 006.42-.7 4.11 4.11 0 01-1.04-.2 9.45 9.45 0 01-1.44-.81 8.48 8.48 0 00-3-1 6.93 6.93 0 01-1.63-.36 3.24 3.24 0 01-1.31-1.06 6.65 6.65 0 01-.91-3.17l-.06-.47.36.31a21.58 21.58 0 004.86 3.16 8.76 8.76 0 005.56.93 9.14 9.14 0 002.57-1.26 17.25 17.25 0 012.65-1.27 10.32 10.32 0 012.91-.7 8.27 8.27 0 012.24.19 2.62 2.62 0 01.49.17c-1.9-4.12-12.38-3-14.33-2.8h-.32l.07-.12a.65.65 0 01.09-.16c2.52-4.38 10.7-2.83 10.71-2.84a15.57 15.57 0 003.9-.51l.51-.15a3.59 3.59 0 00.35-.12 3.94 3.94 0 00.48-.18 3.85 3.85 0 00.47-.19 8.22 8.22 0 002.81-2.11l.29-.36a7.94 7.94 0 001.52-4.29V47.38a2.81 2.81 0 01-.82 1 5.49 5.49 0 01-1.19.48 13.06 13.06 0 01-2.47.44 33.78 33.78 0 01-4.93 0 24.22 24.22 0 00-4.51.16h-.31c-.28 0-.57.1-.86.16l-.28.06-.46.12-.3.1a.38.38 0 00-.16 0l-.31.1a7.39 7.39 0 00-2 1l-1.31 1 .82-1.38a5.57 5.57 0 011.12-1.39 5.48 5.48 0 011.35-.85l.17-.08h.14l.16-.07.3-.1a4 4 0 01.46-.13 2.89 2.89 0 01.47-.11 12.91 12.91 0 011.86-.21c1.15-.06 2.28.07 3.37 0s2.25 0 3.34-.14a10.15 10.15 0 003.16-.75 6.32 6.32 0 002.49-2l.23-.27.06-.06.17-.21a1.83 1.83 0 00.13-.16.18.18 0 000-.07c.06-.06.11-.13.17-.2l.14-.22v-.06l.25-.36c.22-.34.44-.68.65-1l.88-1.46c.12-.19.23-.39.34-.59-2.24 1.42-7.1 1.58-11.61.47a9.48 9.48 0 00-8.16 1.49 6.59 6.59 0 00-1 .9 4 4 0 01.74-1.13c2-2.2 7.15-4.5 16.51-5.07 5.49-.34 7.19-4.85 7.66-6.69.07-.29.12-.51.14-.64a1.11 1.11 0 010-.13zM66.47 53.67a.81.81 0 01-.41-.79 1.08 1.08 0 01.38-.71 3.9 3.9 0 011.21-.7 2.33 2.33 0 00-.08 1.3 1.1 1.1 0 010 .38.64.64 0 01-.24.43.84.84 0 01-.86.09zm2.12 2.47a1.37 1.37 0 01-1 0 1.07 1.07 0 01-.65-.83.83.83 0 01.5-1 1.24 1.24 0 011 .25 3.33 3.33 0 001.6.44 4.84 4.84 0 01-1.45 1.14zm16.93-7.73a1.93 1.93 0 011.36-2 1.45 1.45 0 011.14 0 1.55 1.55 0 01.73.8l.14.39-.41.07a5.44 5.44 0 00-2.38 1l-.59.5zm-3.9-.34a2.2 2.2 0 00.31.61 2.46 2.46 0 00.41.48 7.74 7.74 0 001.14.82 1.51 1.51 0 01-1.63-.32 1.47 1.47 0 01-.43-.78.83.83 0 01.2-.81zm-1.34 1.18a5 5 0 00.61 1 1.92 1.92 0 00.39.36 4.91 4.91 0 00.53.33 1.26 1.26 0 01-1.28-.38 1.35 1.35 0 01-.25-1.31zm-1.46 1.18c.19.2.34.41.52.58a2.25 2.25 0 00.78.63.78.78 0 01-.6 0 1.33 1.33 0 01-.53-.35 1.46 1.46 0 01-.39-1.1c.08.1.15.18.22.24zm4 13.2a3.44 3.44 0 01-1.21.52 1.14 1.14 0 01-1.19-.39 1.08 1.08 0 001.15.22 2.94 2.94 0 001.07-.61 11.53 11.53 0 001.76-1.8c.27-.32.52-.67.78-1a7.22 7.22 0 01.91-1L88 57.86c1.21-1.18 2.42-2.35 2.71-3.93a13.14 13.14 0 00.29-4.06A25.22 25.22 0 0188.24 52a15.55 15.55 0 01-3.88 2 7.93 7.93 0 01-2.17.4 7.46 7.46 0 01-1.09-.06l-1.1-.12a10.43 10.43 0 00-2.09.1 2.77 2.77 0 00-1.84.9 2.7 2.7 0 011.83-1.12 10.31 10.31 0 012.1-.3c.71-.07 1.47 0 2.11 0a7.63 7.63 0 002-.49 16.58 16.58 0 003.62-2A27.55 27.55 0 0091 48.6l.65-.62.14.87a14.48 14.48 0 01-.14 5.29 5.91 5.91 0 01-1.19 2.47 14.31 14.31 0 01-1.85 1.88c-.65.58-1.34 1.11-2 1.63a7.2 7.2 0 00-.9.82c-.29.33-.55.68-.86 1a9.78 9.78 0 01-2.01 1.69zM103.2 47a9 9 0 01-.94 2.7 6 6 0 01-2 2.13 5.61 5.61 0 01-1.79.78l.31.17a4.06 4.06 0 001.16.43 4.21 4.21 0 001.23.1 6.73 6.73 0 001.25-.18l.71-.17-.18.64a2 2 0 01-.41.79 3.93 3.93 0 01-.55.53 6.22 6.22 0 01-1.2.79 14.09 14.09 0 01-2.62 1 33.13 33.13 0 01-5.4.92A6.83 6.83 0 0090.19 59a8.94 8.94 0 00-1.93 2.39 9.19 9.19 0 01-2 2.51 7.37 7.37 0 01-2.74 1.57 7.87 7.87 0 002.6-1.72 9.38 9.38 0 001.81-2.53 8.53 8.53 0 011.91-2.6A7.39 7.39 0 0192.67 57c1-.12 1.9-.27 2.83-.46s1.63-.36 2.43-.59a14 14 0 002.45-1 5.91 5.91 0 001-.7 1.17 1.17 0 00.16-.15h-.4a5.5 5.5 0 01-1.38-.1 5 5 0 01-1.39-.5 4.84 4.84 0 01-1.22-.88l-.57-.57.83-.19a6.37 6.37 0 002.35-.86 5.09 5.09 0 001.72-1.79 7.8 7.8 0 00.86-2.41 12.24 12.24 0 00.18-1.6 4.24 4.24 0 01-1.17.67 4.35 4.35 0 01-1.2.26 8.24 8.24 0 01-1.15-.05 8.24 8.24 0 00-2.1.08 9.84 9.84 0 00-2 .57l-.66.27.2-.66a5.06 5.06 0 00.14-2.19 6 6 0 00-.46-1.55 1.78 1.78 0 01-.39.54 2.88 2.88 0 01-1.11.63 4.27 4.27 0 01-1.23.25h-1.18a10.09 10.09 0 00-2.32.42 4 4 0 00-2 1.24 4 4 0 011.91-1.4 10 10 0 012.35-.55c.4 0 .8-.08 1.19-.1a4.31 4.31 0 001.11-.28 1.75 1.75 0 001.31-1.49v-.84l.46.71a6.43 6.43 0 01.89 2.29 5.35 5.35 0 01.05 1.83 10.68 10.68 0 011.59-.44 8 8 0 012.29-.15 7.61 7.61 0 001 0 3 3 0 001-.2 3.47 3.47 0 001.53-1.06l.68-1 .1 1.17a10.8 10.8 0 01-.15 2.83zm-36.5 5.42c-.26.3-.26.73 0 .84a.41.41 0 00.4 0c.07 0 .09-.07.11-.13a2.44 2.44 0 000-.29 1.83 1.83 0 01.44-1.34 12.16 12.16 0 00-.95.92zm0 0c-.26.3-.26.73 0 .84a.41.41 0 00.4 0c.07 0 .09-.07.11-.13a2.44 2.44 0 000-.29 1.83 1.83 0 01.44-1.34 12.16 12.16 0 00-.95.92zm0 0c-.26.3-.26.73 0 .84a.41.41 0 00.4 0c.07 0 .09-.07.11-.13a2.44 2.44 0 000-.29 1.83 1.83 0 01.44-1.34 12.16 12.16 0 00-.95.92zm0 0c-.26.3-.26.73 0 .84a.41.41 0 00.4 0c.07 0 .09-.07.11-.13a2.44 2.44 0 000-.29 1.83 1.83 0 01.44-1.34 12.16 12.16 0 00-.95.92zm0 0c-.26.3-.26.73 0 .84a.41.41 0 00.4 0c.07 0 .09-.07.11-.13a2.44 2.44 0 000-.29 1.83 1.83 0 01.44-1.34 12.16 12.16 0 00-.95.92zm0 0c-.26.3-.26.73 0 .84a.41.41 0 00.4 0c.07 0 .09-.07.11-.13a2.44 2.44 0 000-.29 1.83 1.83 0 01.44-1.34 12.16 12.16 0 00-.95.92zm0 0c-.26.3-.26.73 0 .84a.41.41 0 00.4 0c.07 0 .09-.07.11-.13a2.44 2.44 0 000-.29 1.83 1.83 0 01.44-1.34 12.16 12.16 0 00-.95.92zm0 0c-.26.3-.26.73 0 .84a.41.41 0 00.4 0c.07 0 .09-.07.11-.13a2.44 2.44 0 000-.29 1.83 1.83 0 01.44-1.34 12.16 12.16 0 00-.95.92zm0 0c-.26.3-.26.73 0 .84a.41.41 0 00.4 0c.07 0 .09-.07.11-.13a2.44 2.44 0 000-.29 1.83 1.83 0 01.44-1.34 12.16 12.16 0 00-.95.92zm0 0c-.26.3-.26.73 0 .84a.41.41 0 00.4 0c.07 0 .09-.07.11-.13a2.44 2.44 0 000-.29 1.83 1.83 0 01.44-1.34 12.16 12.16 0 00-.95.92zm0 0c-.26.3-.26.73 0 .84a.41.41 0 00.4 0c.07 0 .09-.07.11-.13a2.44 2.44 0 000-.29 1.83 1.83 0 01.44-1.34 12.16 12.16 0 00-.95.92zm0 0c-.26.3-.26.73 0 .84a.41.41 0 00.4 0c.07 0 .09-.07.11-.13a2.44 2.44 0 000-.29 1.83 1.83 0 01.44-1.34 12.16 12.16 0 00-.95.92zm0 0c-.26.3-.26.73 0 .84a.41.41 0 00.4 0c.07 0 .09-.07.11-.13a2.44 2.44 0 000-.29 1.83 1.83 0 01.44-1.34 12.16 12.16 0 00-.95.92zm0 0c-.26.3-.26.73 0 .84a.41.41 0 00.4 0c.07 0 .09-.07.11-.13a2.44 2.44 0 000-.29 1.83 1.83 0 01.44-1.34 12.16 12.16 0 00-.95.92zm0 0c-.26.3-.26.73 0 .84a.41.41 0 00.4 0c.07 0 .09-.07.11-.13a2.44 2.44 0 000-.29 1.83 1.83 0 01.44-1.34 12.16 12.16 0 00-.95.92zm0 0c-.26.3-.26.73 0 .84a.41.41 0 00.4 0c.07 0 .09-.07.11-.13a2.44 2.44 0 000-.29 1.83 1.83 0 01.44-1.34 12.16 12.16 0 00-.95.92zm15.71 15.69l-.1.11.15-.15a.1.1 0 00-.05.04zM66.7 52.42c-.26.3-.26.73 0 .84a.41.41 0 00.4 0c.07 0 .09-.07.11-.13a2.44 2.44 0 000-.29 1.83 1.83 0 01.44-1.34 12.16 12.16 0 00-.95.92zm0 0c-.26.3-.26.73 0 .84a.41.41 0 00.4 0c.07 0 .09-.07.11-.13a2.44 2.44 0 000-.29 1.83 1.83 0 01.44-1.34 12.16 12.16 0 00-.95.92zm0 0c-.26.3-.26.73 0 .84a.41.41 0 00.4 0c.07 0 .09-.07.11-.13a2.44 2.44 0 000-.29 1.83 1.83 0 01.44-1.34 12.16 12.16 0 00-.95.92zm0 0c-.26.3-.26.73 0 .84a.41.41 0 00.4 0c.07 0 .09-.07.11-.13a2.44 2.44 0 000-.29 1.83 1.83 0 01.44-1.34 12.16 12.16 0 00-.95.92zm0 0c-.26.3-.26.73 0 .84a.41.41 0 00.4 0c.07 0 .09-.07.11-.13a2.44 2.44 0 000-.29 1.83 1.83 0 01.44-1.34 12.16 12.16 0 00-.95.92zm0 0c-.26.3-.26.73 0 .84a.41.41 0 00.4 0c.07 0 .09-.07.11-.13a2.44 2.44 0 000-.29 1.83 1.83 0 01.44-1.34 12.16 12.16 0 00-.95.92zm0 0c-.26.3-.26.73 0 .84a.41.41 0 00.4 0c.07 0 .09-.07.11-.13a2.44 2.44 0 000-.29 1.83 1.83 0 01.44-1.34 12.16 12.16 0 00-.95.92zm0 0c-.26.3-.26.73 0 .84a.41.41 0 00.4 0c.07 0 .09-.07.11-.13a2.44 2.44 0 000-.29 1.83 1.83 0 01.44-1.34 12.16 12.16 0 00-.95.92zm0 0c-.26.3-.26.73 0 .84a.41.41 0 00.4 0c.07 0 .09-.07.11-.13a2.44 2.44 0 000-.29 1.83 1.83 0 01.44-1.34 12.16 12.16 0 00-.95.92zm0 0c-.26.3-.26.73 0 .84a.41.41 0 00.4 0c.07 0 .09-.07.11-.13a2.44 2.44 0 000-.29 1.83 1.83 0 01.44-1.34 12.16 12.16 0 00-.95.92zm0 0c-.26.3-.26.73 0 .84a.41.41 0 00.4 0c.07 0 .09-.07.11-.13a2.44 2.44 0 000-.29 1.83 1.83 0 01.44-1.34 12.16 12.16 0 00-.95.92zm0 0c-.26.3-.26.73 0 .84a.41.41 0 00.4 0c.07 0 .09-.07.11-.13a2.44 2.44 0 000-.29 1.83 1.83 0 01.44-1.34 12.16 12.16 0 00-.95.92zm0 0c-.26.3-.26.73 0 .84a.41.41 0 00.4 0c.07 0 .09-.07.11-.13a2.44 2.44 0 000-.29 1.83 1.83 0 01.44-1.34 12.16 12.16 0 00-.95.92zm0 0c-.26.3-.26.73 0 .84a.41.41 0 00.4 0c.07 0 .09-.07.11-.13a2.44 2.44 0 000-.29 1.83 1.83 0 01.44-1.34 12.16 12.16 0 00-.95.92zm0 0c-.26.3-.26.73 0 .84a.41.41 0 00.4 0c.07 0 .09-.07.11-.13a2.44 2.44 0 000-.29 1.83 1.83 0 01.44-1.34 12.16 12.16 0 00-.95.92zm0 0c-.26.3-.26.73 0 .84a.41.41 0 00.4 0c.07 0 .09-.07.11-.13a2.44 2.44 0 000-.29 1.83 1.83 0 01.44-1.34 12.16 12.16 0 00-.95.92zm0 0c-.26.3-.26.73 0 .84a.41.41 0 00.4 0c.07 0 .09-.07.11-.13a2.44 2.44 0 000-.29 1.83 1.83 0 01.44-1.34 12.16 12.16 0 00-.95.92zm0 0c-.26.3-.26.73 0 .84a.41.41 0 00.4 0c.07 0 .09-.07.11-.13a2.44 2.44 0 000-.29 1.83 1.83 0 01.44-1.34 12.16 12.16 0 00-.95.92zm0 0c-.26.3-.26.73 0 .84a.41.41 0 00.4 0c.07 0 .09-.07.11-.13a2.44 2.44 0 000-.29 1.83 1.83 0 01.44-1.34 12.16 12.16 0 00-.95.92zm0 0c-.26.3-.26.73 0 .84a.41.41 0 00.4 0c.07 0 .09-.07.11-.13a2.44 2.44 0 000-.29 1.83 1.83 0 01.44-1.34 12.16 12.16 0 00-.95.92zm0 0c-.26.3-.26.73 0 .84a.41.41 0 00.4 0c.07 0 .09-.07.11-.13a2.44 2.44 0 000-.29 1.83 1.83 0 01.44-1.34 12.16 12.16 0 00-.95.92zm0 0c-.26.3-.26.73 0 .84a.41.41 0 00.4 0c.07 0 .09-.07.11-.13a2.44 2.44 0 000-.29 1.83 1.83 0 01.44-1.34 12.16 12.16 0 00-.95.92zm0 0c-.26.3-.26.73 0 .84a.41.41 0 00.4 0c.07 0 .09-.07.11-.13a2.44 2.44 0 000-.29 1.83 1.83 0 01.44-1.34 12.16 12.16 0 00-.95.92zm0 0c-.26.3-.26.73 0 .84a.41.41 0 00.4 0c.07 0 .09-.07.11-.13a2.44 2.44 0 000-.29 1.83 1.83 0 01.44-1.34 12.16 12.16 0 00-.95.92zm0 0c-.26.3-.26.73 0 .84a.41.41 0 00.4 0c.07 0 .09-.07.11-.13a2.44 2.44 0 000-.29 1.83 1.83 0 01.44-1.34 12.16 12.16 0 00-.95.92zm0 0c-.26.3-.26.73 0 .84a.41.41 0 00.4 0c.07 0 .09-.07.11-.13a2.44 2.44 0 000-.29 1.83 1.83 0 01.44-1.34 12.16 12.16 0 00-.95.92zm0 0c-.26.3-.26.73 0 .84a.41.41 0 00.4 0c.07 0 .09-.07.11-.13a2.44 2.44 0 000-.29 1.83 1.83 0 01.44-1.34 12.16 12.16 0 00-.95.92zm0 0c-.26.3-.26.73 0 .84a.41.41 0 00.4 0c.07 0 .09-.07.11-.13a2.44 2.44 0 000-.29 1.83 1.83 0 01.44-1.34 12.16 12.16 0 00-.95.92zm0 0c-.26.3-.26.73 0 .84a.41.41 0 00.4 0c.07 0 .09-.07.11-.13a2.44 2.44 0 000-.29 1.83 1.83 0 01.44-1.34 12.16 12.16 0 00-.95.92z"/>
  <path d="M70 55.09a9.38 9.38 0 01-1.55.72.75.75 0 01-1.06-.51c0-.21 0-.46.17-.48s.4 0 .68.16a2.55 2.55 0 001.76.11zM134.09 151.06l-.32.42.34-.44zM119.36 75.6v.09a.28.28 0 000-.09zM142 73.68a18.38 18.38 0 00-6-6.94c-.25-.59-.53-1.18-.83-1.75a30.27 30.27 0 00-3.07-4.76l2.84 1.32c6 2.77 7.06 12.13 7.06 12.13zM125 55.66l-2.19-1.2a14.27 14.27 0 012.19 1.2zM138 61a13.51 13.51 0 00-8.88-4 20.82 20.82 0 00-7.41-4.59 23.22 23.22 0 013 .08c7.59.62 12.85 7.91 13.29 8.51zM139 94.66s1.43-5.08-1.76-8.71c.2-.7.37-1.42.53-2.15a24.27 24.27 0 00.51-3.07 18.72 18.72 0 002 3.58c2.07 3.43-1.28 10.35-1.28 10.35zM131 104.34a15.09 15.09 0 002.06-8.94 28.19 28.19 0 001.53-2.55 31.63 31.63 0 001.45-3.23c.15 1.16.64 1.1.93 3.41.51 3.84-5.46 10.77-5.97 11.31zM131.34 97.45c-1.33 3.07-1 3.89-1.73 7-.88 3.92-5 8-5 8a11 11 0 001.1-8.93zM124.5 104.34c-1.8 2.81-1.69 4.41-2.86 7.35-1.49 3.74-6 5.78-6 5.78s2.86-2.71 2.24-8.21zM115.36 110.31c-1.8 2.82-1.47 3-2.65 6-1.49 3.74-6.2 7.18-6.2 7.18a19.18 19.18 0 002.58-9zM105.71 117.39a32.73 32.73 0 00-1.85 4.64c-1.45 3.62-5.91 6.75-6.19 6.94.15-.28 3.15-5.6 2.94-8.61 1.7-.95 3.39-1.94 5.1-2.97zM143.08 84.74s-.41-3.33-4.64-6.84a28 28 0 00-.59-5.36c.78.82 1.56 1.25 2.75 2.36 2.92 2.76 2.48 9.84 2.48 9.84zM96.87 122.48a11.14 11.14 0 01-1.35 2.65 15.47 15.47 0 00-2.1 4 10.94 10.94 0 00-.32 3.92 8.33 8.33 0 01-1.46-3.18 14.9 14.9 0 010-3.89 57.47 57.47 0 015.23-3.5zM84 136.52a68.93 68.93 0 004.32 10.75 12.39 12.39 0 01-2.45-1.8 8.84 8.84 0 01-2.1-2.71c-.28-2.91-.32-4.28.23-6.24zM90.15 140a6.65 6.65 0 01-3.39-2.76 17 17 0 01-1.61-3.91c0-.13.11-.27.19-.45s.13-.26.2-.41a13.94 13.94 0 012.08-2.88l.06-.06a3.24 3.24 0 01.33-.35c.1-.11.21-.24.35-.37s.38-.4.6-.6v.11a11.32 11.32 0 01-.18 3 17.92 17.92 0 00-.49 4.19 13.34 13.34 0 001.86 4.49zM110.69 154.36a15.91 15.91 0 01-6.28 4.62c-.23.09-.47.17-.71.24-1 .27-5.54-1.86-5.54-1.86h.39c1.81.05 9.51 0 12.14-3zM123.72 147.63v.06a.07.07 0 010 .06.69.69 0 010 .13 13 13 0 01-1.31 2.31l-.26.34c-.08.13-.18.25-.27.37.57-2.26 1.46-6.69.34-8.78a12.87 12.87 0 011.5 5.51zM119.46 153.31a.13.13 0 010 .06.46.46 0 01-.1.2 21.42 21.42 0 01-3.49 3c0-.06.17-.27.37-.61a2.36 2.36 0 01.15-.25c1.14-1.94 3.62-6.55 2.81-9.25a12.69 12.69 0 01.26 6.85zM115.8 151.8c-.2.56-1.63 4.48-2.76 5.9a1.32 1.32 0 01-.49.43 8.79 8.79 0 01-1.67.52 20.55 20.55 0 01-4.23.36l.12-.07c.94-.48 7.58-4.08 9.03-7.14zM135 148.89a23.55 23.55 0 00.07-4c-.05-.75-.13-1.51-.24-2.25a17.06 17.06 0 001.08-7.06s2.38 8.3-.91 13.31z"/>
  <path d="M134.19 141.55a23.19 23.19 0 00-1.59-5.91 20.1 20.1 0 00-.68-8.79s4.96 8.91 2.27 14.7zM131.36 134a16.61 16.61 0 00-3.12-4.23.42.42 0 000-.1.63.63 0 000-.14c-.28-1.1-1.55-5.5-3.56-6.33.32.09 6.83 1.64 6.68 10.8zM125.62 127.63a15.87 15.87 0 00-4.35-1.76l-.06-.11c-.07-.13-.15-.28-.25-.44a5.87 5.87 0 00-4.49-2.79s6.62-.83 8.89 4.41c.06.17.14.35.2.55.03.05.04.09.06.14zM119 125.92a1.7 1.7 0 00-.39-.09 8.7 8.7 0 00-2.16-.06h-.26l-.78.08h-.06a2.53 2.53 0 00-.36-.2 1.19 1.19 0 00-.26-.11.73.73 0 00-.19-.07 6.6 6.6 0 00-1-.24 16.9 16.9 0 00-4.56.12c5-3.07 8-1.56 9.31-.37l.41.4s.06.06.07.09l.14.18.16.22zM110.18 126.91c-1.29.34-3.46 1.11-3.46 1.11h-.12a3 3 0 00-.6-.06 3.77 3.77 0 00-.57 0 12.76 12.76 0 00-4.69 2.23c4.73-4.72 7.35-4.63 8.59-4a3.58 3.58 0 01.42.25l.08.08.13.13a.47.47 0 01.1.1.37.37 0 01.12.16zM87.16 168.13c.18.61.35 1.14.51 1.62.1.28.19.56.29.81s.11.31.17.45a.11.11 0 010 .05v.07a.64.64 0 000 .07c.09.42.17.83.22 1.23l.07.53a11.77 11.77 0 01-3.76 10c1.57-2 1-7.25 1-7.25-1.31-3.63-.12-7.67.53-9.37l.11-.3c.1-.23.25-.65.26-.66s.38 1.98.6 2.75zM88.85 172.66s0-.01 0 0z"/>
  <path d="M92.55 179.47a6.3 6.3 0 01-1.24 3.95c-3.35 4.28-5.84 5.28-5.84 5.28 3.1-2.29 1.34-5.41 2.92-8.15a9.56 9.56 0 00.84-6.2c0-.18-.07-.36-.09-.52-.12-.57-.24-1-.28-1.13a.8.8 0 00.08.16l.33.61c.16.29.32.56.48.83.05.07.1.16.14.23.34.54.67 1.05 1 1.53s.43.65.65 1l.54.84.33.51v.07c0 .1.05.33.07.65a2 2 0 010 .35zM98.74 178a47.22 47.22 0 01-2.19-5.42 16.62 16.62 0 01-.58-2v-.05c0-.05-.06-.24-.09-.35a2.86 2.86 0 00-.16-.52l.23.15c.19.14.4.28.74.56l.12.1a8.43 8.43 0 012.65 3.12c.65 1.86 5.66 7.45 7.75 7.73-.74-.07-5.87-.49-8.47-3.32zM100.63 187.08a8.16 8.16 0 01-.07 1.15v.14a5.19 5.19 0 01-.69 2.19 6.93 6.93 0 01-2.75 2.34 15.75 15.75 0 01-1.94.86c-.56.22-1.14.45-1.69.72a13 13 0 00-1.87 1c-.19.13-.36.25-.52.38a2.07 2.07 0 010-.43 4.47 4.47 0 01.79-1.83 23.53 23.53 0 011.5-1.94c.45-.56.93-1.13 1.36-1.74a7.39 7.39 0 001.6-4.86 12 12 0 00-1.67-4.69c-.09-.16-.17-.33-.27-.49a2 2 0 00-.16-.29l4.13-.23a1.42 1.42 0 00.08.18c.1.24.22.5.34.75a.67.67 0 01.06.15 19.08 19.08 0 011.75 5.93 1.36 1.36 0 010 .2 4.61 4.61 0 01.02.51z"/>
  <path d="M98.15 198.71c-8.75 3.17-10.74 6-10.74 6-.06-4.69-1.16-8.19 1.36-11.33a69.06 69.06 0 004.78-7c-2.1 3.55-6.67 3.12-6.67 3.12 4.26-1 6-6.07 6.52-8.56 0-.09 0-.18.07-.26.26.48.52 1 .76 1.47l.15.31c.09.21.17.4.25.61s.06.18.09.27a6.71 6.71 0 01.37 1.5v.32a6.24 6.24 0 01-1.39 4.17c-.89 1.26-2 2.39-2.88 3.73a5.6 5.6 0 00-1 2.25 3.17 3.17 0 00.42 2.07 2.75 2.75 0 00.19.28s.17.33.17.35l.37-.63.07-.16.28-.33c0 .07-.37.53-.35.49a1.26 1.26 0 00.07-.16 4.09 4.09 0 01.28-.33 5.41 5.41 0 01.75-.59 13.13 13.13 0 011.73-1c1.19-.57 2.49-.95 3.7-1.61a8.35 8.35 0 002.88-2.35l.94-1.41c0-.09.18-.31.2-.39a8.39 8.39 0 00.21-2.25l.62 1.75c.72 3.6.37 8.03-4.2 9.67zM105.62 191.8c.28-1.64-2.25-4.81-3.62-6.21-.21-.21-.39-.38-.53-.5a11.6 11.6 0 00-.56-1.87l-.15-.46-.05-.12c-.37-1.11-.84-2.21-1.33-3.32l-.07-.15c7.05 4.38 6.69 11.05 6.31 12.63zM128.9 47.59a1.35 1.35 0 00.26-.6"/>
</svg>