<svg xmlns="http://www.w3.org/2000/svg" viewBox="0 0 61.228 67.733">
  <defs/>
  <g color="#000">
    <path fill="#502d16" d="M18.534 41.178l6.44 5.683-14.52 16.452-6.439-5.683z" overflow="visible" style="marker:none"/>
    <path fill="#436fa6" d="M56.263 4.281l4.965 20.57L22.94 52.536l-7.715-7.805 20.46-39.083z" overflow="visible" style="marker:none"/>
    <path fill="#c5e0fe" d="M43.097 19.235L18.642 48.743l-5.168-5.557L36.297 2.531z" overflow="visible" style="marker:none"/>
    <path fill="#6188b6" d="M60.529 0l.699 24.851-17.338-5.985-7.488-16.242z" overflow="visible" style="marker:none"/>
    <path fill="#fff" d="M36.445 2.615l-.04.01-.065.125 5.917 17.338-23.884 25.684 2.068 1.825 22.557-26.854c.005-.006 15.617 3.572 18.09 4.212l.139-.105-.003-.032-17.05-6.156z" overflow="visible" style="marker:none"/>
    <path fill="#904d00" d="M13.599 40.45L26.31 51.667l.094 3.195-4.09-3.423-5.448-1.882-2.545-5.172-3.905-3.633z" overflow="visible" style="marker:none"/>
    <path fill="#904d00" d="M8.98 44.387l3.089 2.06 3.266 4.746 5.042 2.586 2.6 2.96 3.578-.95L9.48 40.719z" overflow="visible" style="marker:none"/>
    <path fill="#e89a00" d="M12.773 40.513L26.35 52.495l.205 3.294-4.361-3.663-5.72-2.123-2.819-5.412-4.176-3.873z" overflow="visible" style="marker:none"/>
    <path fill="#9f4f1e" d="M12.717 48.76l-7.092 8.036c3.158 2.198 6.82 2.45 8.597.435 1.778-2.015 1.069-5.611-1.505-8.47z" overflow="visible" style="marker:none"/>
    <path fill="#ffee62" d="M12.773 40.513L26.35 52.495l-6.213-3.399-3.664.907.444-3.748z" overflow="visible" style="marker:none"/>
    <path fill="#502d16" d="M16.92 55.988l-6.505-5.617-.03.035c1.434 2.336 3.944 4.277 6.35 5.79zm-3.027 3.43l-6.497-5.626-.03.035c1.434 2.336 3.938 4.284 6.343 5.799z" overflow="visible" style="marker:none"/>
    <path fill="#d17339" d="M17.094 55.79l-6.504-5.617-.031.035c1.435 2.336 3.945 4.278 6.351 5.79zm-3.027 3.43l-6.496-5.626-.03.035c1.434 2.336 3.938 4.284 6.343 5.799z" overflow="visible" style="marker:none"/>
    <path fill="#ad5904" d="M10.908 66.108c-1.985 2.25-5.77 2.152-8.456-.218-2.685-2.37-3.252-6.114-1.267-8.363 1.984-2.249 5.77-2.151 8.455.218 2.685 2.37 3.253 6.114 1.268 8.363z" overflow="visible" style="marker:none"/>
    <path fill="#e89a00" d="M10.278 64.964c-1.608 1.822-4.676 1.743-6.852-.177C1.251 62.867.791 59.832 2.4 58.01c1.608-1.823 4.676-1.743 6.852.177 2.176 1.92 2.636 4.954 1.027 6.777z" overflow="visible" style="marker:none"/>
    <path fill="#ffee62" d="M7.55 60.958c-.899 1.018-2.409 1.152-3.374.3-.966-.852-1.02-2.368-.123-3.385.898-1.017 2.408-1.151 3.374-.3.965.853 1.02 2.368.122 3.385z" overflow="visible" style="marker:none"/>
  </g>
</svg>
